<svg width="1080" height="1080" xmlns="http://www.w3.org/2000/svg" clip-rule="evenodd" xml:space="preserve" version="1.1">
 <g>
  <title>Layer 1</title>
  <g id="svg_1" transform="matrix(1,0,0,1,-0.01,-71.8392)">
   <path id="svg_2" fill-rule="nonzero" fill="white" d="m798.89,633.48l-8.46,0l0,66.16l8.46,0c6.92,0 13.08,-2.31 16.93,-7.69c3.85,-5.38 6.18,-13.08 6.18,-23.08l0,-4.62c0,-10 -2.31,-17.69 -6.15,-23.08c-3.84,-5.39 -9.27,-7.69 -16.96,-7.69z"/>
  </g>
  <g id="svg_3" transform="matrix(1,0,0,1,-0.01,-71.8392)">
   <path id="svg_4" fill-rule="nonzero" fill="white" d="m10.3,565.77l0,205.42l1059.4,0l0,-205.42l-1059.4,0zm154.64,153.11l-69.24,0l0,-104.64l25.38,0l0,85.4l43.86,0l0,19.24zm126.94,-85.4l-46.88,0l0,22.31l40,0l0,18.46l-40,0l0,25.39l46.93,0l0,19.24l-72.37,0l0,-104.64l72.32,0l0,19.24zm140.79,72.32l-0.76,0c-3.85,4.61 -9.24,7.69 -16.93,10.77c-7.965,2.519 -16.266,3.814 -24.62,3.84c-13.85,0 -24.62,-3.84 -33.08,-12.31c-8.46,-8.47 -12.31,-20 -13.08,-35.39l0,-9.23c0,-10 1.54,-19.23 5.38,-26.93c3.84,-7.7 9.24,-13.84 15.39,-17.69c7.274,-4.104 15.499,-6.228 23.85,-6.16c13.08,0 23.08,3.08 30.78,9.24c6.92,6.15 11.54,14.61 12.31,26.92l-23.86,0c-0.76,-6.15 -3.07,-10 -5.38,-12.31c-3.553,-2.63 -7.892,-3.983 -12.31,-3.84c-6.16,0 -11.54,2.31 -14.62,7.69c-3.08,5.38 -5.38,13.08 -5.38,23.08l0,6.16c0,10.77 1.54,18.46 5.38,23.85c3.84,5.39 9.23,7.69 16.93,7.69c6.92,0 11.54,-1.54 14.62,-4.62l0,-16.15l-17.7,0l0,-17.7l43.08,0l0,43.09zm130,-72.32l-46.9,0l0,22.31l40,0l0,18.46l-40,0l0,25.39l46.93,0l0,19.24l-72.32,0l0,-104.64l72.32,0l-0.03,19.24zm142.33,85.4l-25.36,0l-36.93,-65.4l0,65.4l-25.39,0l0,-104.64l25.39,0l36.93,65.4l0,-65.4l25.36,0l0,104.64zm142.36,-50.78c-0.031,9.075 -2.139,18.024 -6.16,26.16c-3.741,7.469 -9.636,13.65 -16.92,17.74c-7.552,4.105 -16.025,6.225 -24.62,6.16l-33.85,0l0,-103.92l33.85,0c8.595,-0.065 17.068,2.055 24.62,6.16c7.279,4.074 13.174,10.237 16.92,17.69c4.018,7.862 6.129,16.561 6.16,25.39l0,4.62zm126.94,44.62c-6.92,5.39 -16.15,7.69 -28.46,7.69c-7.932,0.112 -15.799,-1.46 -23.08,-4.61c-6.93,-3.08 -12.31,-6.93 -15.39,-12.31c-3.39,-5.581 -5.243,-11.961 -5.37,-18.49l25.39,0c0,5.39 1.54,10 4.62,12.31c3.08,2.31 7.69,3.85 13.85,3.85c3.84,0 7.69,-0.77 10,-3.08c1.917,-1.796 3.029,-4.293 3.08,-6.92c0,-3.85 -1.54,-6.93 -3.85,-8.46c-2.31,-2.31 -6.92,-3.85 -13.85,-6.16c-6.93,-2.31 -12.31,-4.61 -16.16,-6.15c-13.84,-6.93 -20,-16.16 -20,-27.7c0,-6.16 1.54,-10.77 5.39,-15.39c3.07,-4.61 8.46,-7.69 14.61,-10c6.637,-2.529 13.678,-3.834 20.78,-3.85c6.856,-0.063 13.657,1.246 20,3.85c5.852,2.057 10.771,6.156 13.85,11.54c3.08,4.62 4.62,10.77 4.62,16.93l-25.41,0c0.181,-3.725 -1.218,-7.358 -3.85,-10c-2.31,-2.31 -6.16,-3.85 -10.77,-3.85c-4.61,0 -7.7,0.77 -10.77,3.08c-2.31,2.3 -3.85,4.61 -3.85,7.69c0.17,2.97 1.942,5.624 4.62,6.92c3.07,2.31 7.69,4.62 15.38,6.93c6.93,2.31 13.08,4.61 17.7,7.69c11.54,6.16 16.93,15.39 16.93,26.93c0,9.25 -3.08,16.18 -10.01,21.56z"/>
  </g>
  <g id="svg_5" transform="matrix(1,0,0,1,-0.01,-71.8392)">
   <path id="svg_6" fill-rule="nonzero" fill="white" d="m191.86,326.5l-80.78,0l0,219.27l-20,0l0,-219.27l-80.78,0l0,-16.92l181.56,0l0,16.92z"/>
  </g>
  <g id="svg_7" transform="matrix(1,0,0,1,-0.01,-71.8392)">
   <path id="svg_8" fill-rule="nonzero" fill="white" d="m376.51,432.67l-110,0l0,96.17l127,0l0,16.93l-147.02,0l0,-236.19l146.18,0l0,16.92l-126.18,0l0,89.25l110,0l0.02,16.92z"/>
  </g>
  <g id="svg_9" transform="matrix(1,0,0,1,-0.01,-71.8392)">
   <path id="svg_10" fill-rule="nonzero" fill="white" d="m615,326.5l-80.77,0l0,219.27l-20,0l0,-219.27l-80.79,0l0,-16.92l181.56,0l0,16.92z"/>
  </g>
  <g id="svg_11" transform="matrix(1,0,0,1,-0.01,-71.8392)">
   <path id="svg_12" fill-rule="nonzero" fill="white" d="m758.11,447.29l-68.47,0l0,98.48l-20,0l0,-236.19l76.93,0c25.39,0 44.63,6.15 59.24,18.46c13.85,12.31 21.55,29.24 21.55,50.78c0.147,14.405 -4.45,28.465 -13.08,40c-9.24,11.54 -20.78,19.23 -35.39,23.85l59.24,100.78l0,2.31l-21.55,0l-58.47,-98.47zm-69.24,-16.92l61.55,0c16.93,0 30,-4.62 40,-14.62c10,-9.23 15.38,-21.54 15.38,-36.93c0,-16.93 -5.38,-29.24 -16.15,-38.47c-10.77,-9.23 -25.38,-13.85 -44.65,-13.85l-56.13,0l0,103.87z"/>
  </g>
  <g id="svg_13" transform="matrix(1,0,0,1,-0.01,-71.8392)">
   <path id="svg_14" fill-rule="nonzero" fill="white" d="m1024.31,478.84l-106.94,0l-24.62,66.16l-20.75,0l89.24,-236.19l19.24,0l89.24,237l-20.77,0l-24.64,-66.97zm-100.78,-16.16l94.63,0l-47.7,-128.48l-46.93,128.48z"/>
  </g>
  <text font-weight="bold" stroke="null" transform="matrix(13.4446 0 0 13.3564 -4457.82 -11010)" xml:space="preserve" text-anchor="start" font-family="'Tahoma-Bold', 'Tahoma', sans-serif" font-size="12px" id="svg_19" y="887.26847" x="337.70572" fill="#ffffff">ENHANCED</text>
 </g>

</svg>